<mxfile host="app.diagrams.net" modified="2021-04-27T07:18:25.289Z" agent="5.0 (Windows NT 10.0; Win64; x64) AppleWebKit/537.36 (KHTML, like Gecko) Chrome/90.0.4430.85 Safari/537.36" etag="b6-y7ILpm6b6svkiwwlh" version="14.6.3" type="github">
  <diagram id="riP2jQ445FYhBNn3BrRA" name="Page-1">
    <mxGraphModel dx="1422" dy="882" grid="1" gridSize="10" guides="1" tooltips="1" connect="1" arrows="1" fold="1" page="1" pageScale="1" pageWidth="850" pageHeight="1100" math="0" shadow="0">
      <root>
        <mxCell id="0" />
        <mxCell id="1" parent="0" />
        <mxCell id="O3PNTl9uKQdWFFmynqRc-1" value="Racer" style="swimlane;fontStyle=1;align=center;verticalAlign=top;childLayout=stackLayout;horizontal=1;startSize=26;horizontalStack=0;resizeParent=1;resizeParentMax=0;resizeLast=0;collapsible=1;marginBottom=0;" parent="1" vertex="1">
          <mxGeometry x="80" y="480" width="160" height="200" as="geometry" />
        </mxCell>
        <mxCell id="O3PNTl9uKQdWFFmynqRc-2" value="- id PK&#xa;- sport&#xa;- hometown&#xa;- organization" style="text;strokeColor=none;fillColor=none;align=left;verticalAlign=top;spacingLeft=4;spacingRight=4;overflow=hidden;rotatable=0;points=[[0,0.5],[1,0.5]];portConstraint=eastwest;" parent="O3PNTl9uKQdWFFmynqRc-1" vertex="1">
          <mxGeometry y="26" width="160" height="74" as="geometry" />
        </mxCell>
        <mxCell id="O3PNTl9uKQdWFFmynqRc-3" value="" style="line;strokeWidth=1;fillColor=none;align=left;verticalAlign=middle;spacingTop=-1;spacingLeft=3;spacingRight=3;rotatable=0;labelPosition=right;points=[];portConstraint=eastwest;" parent="O3PNTl9uKQdWFFmynqRc-1" vertex="1">
          <mxGeometry y="100" width="160" height="8" as="geometry" />
        </mxCell>
        <mxCell id="O3PNTl9uKQdWFFmynqRc-4" value="+ registerRace()&#xa;+ setSport()&#xa;+ updateProfile()" style="text;strokeColor=none;fillColor=none;align=left;verticalAlign=top;spacingLeft=4;spacingRight=4;overflow=hidden;rotatable=0;points=[[0,0.5],[1,0.5]];portConstraint=eastwest;" parent="O3PNTl9uKQdWFFmynqRc-1" vertex="1">
          <mxGeometry y="108" width="160" height="92" as="geometry" />
        </mxCell>
        <mxCell id="O3PNTl9uKQdWFFmynqRc-5" value="Organizer" style="swimlane;fontStyle=1;align=center;verticalAlign=top;childLayout=stackLayout;horizontal=1;startSize=26;horizontalStack=0;resizeParent=1;resizeParentMax=0;resizeLast=0;collapsible=1;marginBottom=0;" parent="1" vertex="1">
          <mxGeometry x="360" y="630" width="160" height="240" as="geometry" />
        </mxCell>
        <mxCell id="O3PNTl9uKQdWFFmynqRc-6" value="- organizerName&#xa;- profile&#xa;- overallRate" style="text;strokeColor=none;fillColor=none;align=left;verticalAlign=top;spacingLeft=4;spacingRight=4;overflow=hidden;rotatable=0;points=[[0,0.5],[1,0.5]];portConstraint=eastwest;" parent="O3PNTl9uKQdWFFmynqRc-5" vertex="1">
          <mxGeometry y="26" width="160" height="134" as="geometry" />
        </mxCell>
        <mxCell id="O3PNTl9uKQdWFFmynqRc-7" value="" style="line;strokeWidth=1;fillColor=none;align=left;verticalAlign=middle;spacingTop=-1;spacingLeft=3;spacingRight=3;rotatable=0;labelPosition=right;points=[];portConstraint=eastwest;" parent="O3PNTl9uKQdWFFmynqRc-5" vertex="1">
          <mxGeometry y="160" width="160" height="8" as="geometry" />
        </mxCell>
        <mxCell id="O3PNTl9uKQdWFFmynqRc-8" value="+ updateProfile()" style="text;strokeColor=none;fillColor=none;align=left;verticalAlign=top;spacingLeft=4;spacingRight=4;overflow=hidden;rotatable=0;points=[[0,0.5],[1,0.5]];portConstraint=eastwest;" parent="O3PNTl9uKQdWFFmynqRc-5" vertex="1">
          <mxGeometry y="168" width="160" height="72" as="geometry" />
        </mxCell>
        <mxCell id="YpJQnRrANQLxDz62wEku-1" value="Races" style="swimlane;fontStyle=1;align=center;verticalAlign=top;childLayout=stackLayout;horizontal=1;startSize=26;horizontalStack=0;resizeParent=1;resizeParentMax=0;resizeLast=0;collapsible=1;marginBottom=0;" vertex="1" parent="1">
          <mxGeometry x="360" y="280" width="160" height="280" as="geometry" />
        </mxCell>
        <mxCell id="YpJQnRrANQLxDz62wEku-2" value="- raceID PK&#xa;- eventID &#xa;- organizerID&#xa;- location&#xa;- eventDate&#xa;- eventStartTime&#xa;- eventSponsor&#xa;- capacity&#xa;- wasCancelled" style="text;strokeColor=none;fillColor=none;align=left;verticalAlign=top;spacingLeft=4;spacingRight=4;overflow=hidden;rotatable=0;points=[[0,0.5],[1,0.5]];portConstraint=eastwest;" vertex="1" parent="YpJQnRrANQLxDz62wEku-1">
          <mxGeometry y="26" width="160" height="174" as="geometry" />
        </mxCell>
        <mxCell id="YpJQnRrANQLxDz62wEku-3" value="" style="line;strokeWidth=1;fillColor=none;align=left;verticalAlign=middle;spacingTop=-1;spacingLeft=3;spacingRight=3;rotatable=0;labelPosition=right;points=[];portConstraint=eastwest;" vertex="1" parent="YpJQnRrANQLxDz62wEku-1">
          <mxGeometry y="200" width="160" height="8" as="geometry" />
        </mxCell>
        <mxCell id="YpJQnRrANQLxDz62wEku-4" value="+ getRace()&#xa;+ getRaceInfo()" style="text;strokeColor=none;fillColor=none;align=left;verticalAlign=top;spacingLeft=4;spacingRight=4;overflow=hidden;rotatable=0;points=[[0,0.5],[1,0.5]];portConstraint=eastwest;" vertex="1" parent="YpJQnRrANQLxDz62wEku-1">
          <mxGeometry y="208" width="160" height="72" as="geometry" />
        </mxCell>
        <mxCell id="YpJQnRrANQLxDz62wEku-5" value="Event" style="swimlane;fontStyle=1;align=center;verticalAlign=top;childLayout=stackLayout;horizontal=1;startSize=26;horizontalStack=0;resizeParent=1;resizeParentMax=0;resizeLast=0;collapsible=1;marginBottom=0;" vertex="1" parent="1">
          <mxGeometry x="360" y="80" width="160" height="160" as="geometry" />
        </mxCell>
        <mxCell id="YpJQnRrANQLxDz62wEku-6" value="- eventID PK&#xa;- eventName&#xa;- raceType&#xa;- distance" style="text;strokeColor=none;fillColor=none;align=left;verticalAlign=top;spacingLeft=4;spacingRight=4;overflow=hidden;rotatable=0;points=[[0,0.5],[1,0.5]];portConstraint=eastwest;" vertex="1" parent="YpJQnRrANQLxDz62wEku-5">
          <mxGeometry y="26" width="160" height="74" as="geometry" />
        </mxCell>
        <mxCell id="YpJQnRrANQLxDz62wEku-7" value="" style="line;strokeWidth=1;fillColor=none;align=left;verticalAlign=middle;spacingTop=-1;spacingLeft=3;spacingRight=3;rotatable=0;labelPosition=right;points=[];portConstraint=eastwest;" vertex="1" parent="YpJQnRrANQLxDz62wEku-5">
          <mxGeometry y="100" width="160" height="8" as="geometry" />
        </mxCell>
        <mxCell id="YpJQnRrANQLxDz62wEku-8" value="+ getEvent()&#xa;+ getEventInfo()" style="text;strokeColor=none;fillColor=none;align=left;verticalAlign=top;spacingLeft=4;spacingRight=4;overflow=hidden;rotatable=0;points=[[0,0.5],[1,0.5]];portConstraint=eastwest;" vertex="1" parent="YpJQnRrANQLxDz62wEku-5">
          <mxGeometry y="108" width="160" height="52" as="geometry" />
        </mxCell>
        <mxCell id="YpJQnRrANQLxDz62wEku-9" value="RaceResults" style="swimlane;fontStyle=1;align=center;verticalAlign=top;childLayout=stackLayout;horizontal=1;startSize=26;horizontalStack=0;resizeParent=1;resizeParentMax=0;resizeLast=0;collapsible=1;marginBottom=0;" vertex="1" parent="1">
          <mxGeometry x="80" y="160" width="160" height="240" as="geometry" />
        </mxCell>
        <mxCell id="YpJQnRrANQLxDz62wEku-10" value="- raceID PK&#xa;- racerID PK&#xa;- started&#xa;- finished" style="text;strokeColor=none;fillColor=none;align=left;verticalAlign=top;spacingLeft=4;spacingRight=4;overflow=hidden;rotatable=0;points=[[0,0.5],[1,0.5]];portConstraint=eastwest;" vertex="1" parent="YpJQnRrANQLxDz62wEku-9">
          <mxGeometry y="26" width="160" height="134" as="geometry" />
        </mxCell>
        <mxCell id="YpJQnRrANQLxDz62wEku-11" value="" style="line;strokeWidth=1;fillColor=none;align=left;verticalAlign=middle;spacingTop=-1;spacingLeft=3;spacingRight=3;rotatable=0;labelPosition=right;points=[];portConstraint=eastwest;" vertex="1" parent="YpJQnRrANQLxDz62wEku-9">
          <mxGeometry y="160" width="160" height="8" as="geometry" />
        </mxCell>
        <mxCell id="YpJQnRrANQLxDz62wEku-12" value="+ setResult()&#xa;+ getResultTime()" style="text;strokeColor=none;fillColor=none;align=left;verticalAlign=top;spacingLeft=4;spacingRight=4;overflow=hidden;rotatable=0;points=[[0,0.5],[1,0.5]];portConstraint=eastwest;" vertex="1" parent="YpJQnRrANQLxDz62wEku-9">
          <mxGeometry y="168" width="160" height="72" as="geometry" />
        </mxCell>
        <mxCell id="YpJQnRrANQLxDz62wEku-13" value="RaceEquipment" style="swimlane;fontStyle=1;align=center;verticalAlign=top;childLayout=stackLayout;horizontal=1;startSize=26;horizontalStack=0;resizeParent=1;resizeParentMax=0;resizeLast=0;collapsible=1;marginBottom=0;" vertex="1" parent="1">
          <mxGeometry x="600" y="600" width="160" height="160" as="geometry" />
        </mxCell>
        <mxCell id="YpJQnRrANQLxDz62wEku-14" value="- equiptmentID PK &#xa;- sponsorID&#xa;- equipmentType" style="text;strokeColor=none;fillColor=none;align=left;verticalAlign=top;spacingLeft=4;spacingRight=4;overflow=hidden;rotatable=0;points=[[0,0.5],[1,0.5]];portConstraint=eastwest;" vertex="1" parent="YpJQnRrANQLxDz62wEku-13">
          <mxGeometry y="26" width="160" height="74" as="geometry" />
        </mxCell>
        <mxCell id="YpJQnRrANQLxDz62wEku-15" value="" style="line;strokeWidth=1;fillColor=none;align=left;verticalAlign=middle;spacingTop=-1;spacingLeft=3;spacingRight=3;rotatable=0;labelPosition=right;points=[];portConstraint=eastwest;" vertex="1" parent="YpJQnRrANQLxDz62wEku-13">
          <mxGeometry y="100" width="160" height="8" as="geometry" />
        </mxCell>
        <mxCell id="YpJQnRrANQLxDz62wEku-16" value="+ setEquipment()" style="text;strokeColor=none;fillColor=none;align=left;verticalAlign=top;spacingLeft=4;spacingRight=4;overflow=hidden;rotatable=0;points=[[0,0.5],[1,0.5]];portConstraint=eastwest;" vertex="1" parent="YpJQnRrANQLxDz62wEku-13">
          <mxGeometry y="108" width="160" height="52" as="geometry" />
        </mxCell>
        <mxCell id="YpJQnRrANQLxDz62wEku-17" value="Sponsors" style="swimlane;fontStyle=1;align=center;verticalAlign=top;childLayout=stackLayout;horizontal=1;startSize=26;horizontalStack=0;resizeParent=1;resizeParentMax=0;resizeLast=0;collapsible=1;marginBottom=0;" vertex="1" parent="1">
          <mxGeometry x="600" y="840" width="160" height="160" as="geometry" />
        </mxCell>
        <mxCell id="YpJQnRrANQLxDz62wEku-18" value="- sponsorTier" style="text;strokeColor=none;fillColor=none;align=left;verticalAlign=top;spacingLeft=4;spacingRight=4;overflow=hidden;rotatable=0;points=[[0,0.5],[1,0.5]];portConstraint=eastwest;" vertex="1" parent="YpJQnRrANQLxDz62wEku-17">
          <mxGeometry y="26" width="160" height="64" as="geometry" />
        </mxCell>
        <mxCell id="YpJQnRrANQLxDz62wEku-19" value="" style="line;strokeWidth=1;fillColor=none;align=left;verticalAlign=middle;spacingTop=-1;spacingLeft=3;spacingRight=3;rotatable=0;labelPosition=right;points=[];portConstraint=eastwest;" vertex="1" parent="YpJQnRrANQLxDz62wEku-17">
          <mxGeometry y="90" width="160" height="8" as="geometry" />
        </mxCell>
        <mxCell id="YpJQnRrANQLxDz62wEku-20" value="+ addEquipment()" style="text;strokeColor=none;fillColor=none;align=left;verticalAlign=top;spacingLeft=4;spacingRight=4;overflow=hidden;rotatable=0;points=[[0,0.5],[1,0.5]];portConstraint=eastwest;" vertex="1" parent="YpJQnRrANQLxDz62wEku-17">
          <mxGeometry y="98" width="160" height="62" as="geometry" />
        </mxCell>
        <mxCell id="YpJQnRrANQLxDz62wEku-21" value="EquipmentLog" style="swimlane;fontStyle=1;align=center;verticalAlign=top;childLayout=stackLayout;horizontal=1;startSize=26;horizontalStack=0;resizeParent=1;resizeParentMax=0;resizeLast=0;collapsible=1;marginBottom=0;" vertex="1" parent="1">
          <mxGeometry x="600" y="320" width="160" height="170" as="geometry" />
        </mxCell>
        <mxCell id="YpJQnRrANQLxDz62wEku-22" value="- raceID PK&#xa;- equipmentID PK&#xa;- checkout&#xa;- return&#xa;- returnCondition" style="text;strokeColor=none;fillColor=none;align=left;verticalAlign=top;spacingLeft=4;spacingRight=4;overflow=hidden;rotatable=0;points=[[0,0.5],[1,0.5]];portConstraint=eastwest;" vertex="1" parent="YpJQnRrANQLxDz62wEku-21">
          <mxGeometry y="26" width="160" height="84" as="geometry" />
        </mxCell>
        <mxCell id="YpJQnRrANQLxDz62wEku-23" value="" style="line;strokeWidth=1;fillColor=none;align=left;verticalAlign=middle;spacingTop=-1;spacingLeft=3;spacingRight=3;rotatable=0;labelPosition=right;points=[];portConstraint=eastwest;" vertex="1" parent="YpJQnRrANQLxDz62wEku-21">
          <mxGeometry y="110" width="160" height="8" as="geometry" />
        </mxCell>
        <mxCell id="YpJQnRrANQLxDz62wEku-24" value="+ setCheckoutTime()&#xa;+ setReturnTime()&#xa;+ setReturnCondition()" style="text;strokeColor=none;fillColor=none;align=left;verticalAlign=top;spacingLeft=4;spacingRight=4;overflow=hidden;rotatable=0;points=[[0,0.5],[1,0.5]];portConstraint=eastwest;" vertex="1" parent="YpJQnRrANQLxDz62wEku-21">
          <mxGeometry y="118" width="160" height="52" as="geometry" />
        </mxCell>
        <mxCell id="YpJQnRrANQLxDz62wEku-26" value="" style="endArrow=diamondThin;endFill=1;endSize=24;html=1;exitX=0;exitY=0.5;exitDx=0;exitDy=0;" edge="1" parent="1" source="YpJQnRrANQLxDz62wEku-10" target="O3PNTl9uKQdWFFmynqRc-1">
          <mxGeometry width="160" relative="1" as="geometry">
            <mxPoint x="140" y="400" as="sourcePoint" />
            <mxPoint x="280" y="630" as="targetPoint" />
            <Array as="points">
              <mxPoint x="40" y="253" />
              <mxPoint x="40" y="420" />
              <mxPoint x="160" y="420" />
            </Array>
          </mxGeometry>
        </mxCell>
        <mxCell id="YpJQnRrANQLxDz62wEku-27" value="0..*" style="text;html=1;align=center;verticalAlign=middle;resizable=0;points=[];autosize=1;strokeColor=none;" vertex="1" parent="1">
          <mxGeometry x="170" y="450" width="30" height="20" as="geometry" />
        </mxCell>
        <mxCell id="YpJQnRrANQLxDz62wEku-28" value="User" style="swimlane;fontStyle=1;align=center;verticalAlign=top;childLayout=stackLayout;horizontal=1;startSize=26;horizontalStack=0;resizeParent=1;resizeParentMax=0;resizeLast=0;collapsible=1;marginBottom=0;" vertex="1" parent="1">
          <mxGeometry x="80" y="760" width="160" height="240" as="geometry" />
        </mxCell>
        <mxCell id="YpJQnRrANQLxDz62wEku-29" value="- id PK&#xa;- name&#xa;- contactInfo&#xa;- password&#xa;- userType&#xa;- isPRO" style="text;strokeColor=none;fillColor=none;align=left;verticalAlign=top;spacingLeft=4;spacingRight=4;overflow=hidden;rotatable=0;points=[[0,0.5],[1,0.5]];portConstraint=eastwest;" vertex="1" parent="YpJQnRrANQLxDz62wEku-28">
          <mxGeometry y="26" width="160" height="134" as="geometry" />
        </mxCell>
        <mxCell id="YpJQnRrANQLxDz62wEku-30" value="" style="line;strokeWidth=1;fillColor=none;align=left;verticalAlign=middle;spacingTop=-1;spacingLeft=3;spacingRight=3;rotatable=0;labelPosition=right;points=[];portConstraint=eastwest;" vertex="1" parent="YpJQnRrANQLxDz62wEku-28">
          <mxGeometry y="160" width="160" height="8" as="geometry" />
        </mxCell>
        <mxCell id="YpJQnRrANQLxDz62wEku-31" value="+ register()&#xa;+ login()&#xa;+ updateInformation()" style="text;strokeColor=none;fillColor=none;align=left;verticalAlign=top;spacingLeft=4;spacingRight=4;overflow=hidden;rotatable=0;points=[[0,0.5],[1,0.5]];portConstraint=eastwest;" vertex="1" parent="YpJQnRrANQLxDz62wEku-28">
          <mxGeometry y="168" width="160" height="72" as="geometry" />
        </mxCell>
        <mxCell id="YpJQnRrANQLxDz62wEku-46" style="edgeStyle=orthogonalEdgeStyle;rounded=0;orthogonalLoop=1;jettySize=auto;html=1;exitX=0;exitY=0.5;exitDx=0;exitDy=0;endArrow=block;endFill=0;strokeWidth=1;entryX=0;entryY=0.5;entryDx=0;entryDy=0;" edge="1" parent="1" source="O3PNTl9uKQdWFFmynqRc-2" target="YpJQnRrANQLxDz62wEku-29">
          <mxGeometry relative="1" as="geometry">
            <mxPoint x="20" y="560" as="targetPoint" />
          </mxGeometry>
        </mxCell>
        <mxCell id="YpJQnRrANQLxDz62wEku-47" style="edgeStyle=orthogonalEdgeStyle;rounded=0;orthogonalLoop=1;jettySize=auto;html=1;endArrow=block;endFill=0;strokeWidth=1;entryX=1;entryY=0.5;entryDx=0;entryDy=0;" edge="1" parent="1" source="O3PNTl9uKQdWFFmynqRc-6" target="YpJQnRrANQLxDz62wEku-29">
          <mxGeometry relative="1" as="geometry">
            <mxPoint x="284" y="950" as="targetPoint" />
            <mxPoint x="284" y="640" as="sourcePoint" />
          </mxGeometry>
        </mxCell>
        <mxCell id="YpJQnRrANQLxDz62wEku-48" style="edgeStyle=orthogonalEdgeStyle;rounded=0;orthogonalLoop=1;jettySize=auto;html=1;endArrow=block;endFill=0;strokeWidth=1;" edge="1" parent="1" source="YpJQnRrANQLxDz62wEku-18" target="YpJQnRrANQLxDz62wEku-29">
          <mxGeometry relative="1" as="geometry">
            <mxPoint x="233" y="890" as="targetPoint" />
            <mxPoint x="490" y="890" as="sourcePoint" />
            <Array as="points">
              <mxPoint x="300" y="903" />
              <mxPoint x="300" y="903" />
            </Array>
          </mxGeometry>
        </mxCell>
        <mxCell id="YpJQnRrANQLxDz62wEku-49" value="1..1" style="text;html=1;align=center;verticalAlign=middle;resizable=0;points=[];autosize=1;strokeColor=none;" vertex="1" parent="1">
          <mxGeometry x="40" y="230" width="40" height="20" as="geometry" />
        </mxCell>
        <mxCell id="YpJQnRrANQLxDz62wEku-51" value="0..*" style="text;html=1;align=center;verticalAlign=middle;resizable=0;points=[];autosize=1;strokeColor=none;" vertex="1" parent="1">
          <mxGeometry x="310" y="370" width="30" height="20" as="geometry" />
        </mxCell>
        <mxCell id="YpJQnRrANQLxDz62wEku-52" value="1..1" style="text;html=1;align=center;verticalAlign=middle;resizable=0;points=[];autosize=1;strokeColor=none;" vertex="1" parent="1">
          <mxGeometry x="235" y="230" width="40" height="20" as="geometry" />
        </mxCell>
        <mxCell id="YpJQnRrANQLxDz62wEku-53" style="edgeStyle=orthogonalEdgeStyle;rounded=0;orthogonalLoop=1;jettySize=auto;html=1;endArrow=block;endFill=0;strokeWidth=1;exitX=0.488;exitY=1.019;exitDx=0;exitDy=0;exitPerimeter=0;entryX=1;entryY=0.448;entryDx=0;entryDy=0;entryPerimeter=0;" edge="1" parent="1" source="YpJQnRrANQLxDz62wEku-8" target="YpJQnRrANQLxDz62wEku-2">
          <mxGeometry relative="1" as="geometry">
            <mxPoint x="560" y="410" as="targetPoint" />
            <mxPoint x="890" y="440" as="sourcePoint" />
            <Array as="points">
              <mxPoint x="438" y="260" />
              <mxPoint x="560" y="260" />
              <mxPoint x="560" y="384" />
            </Array>
          </mxGeometry>
        </mxCell>
        <mxCell id="YpJQnRrANQLxDz62wEku-57" value="" style="endArrow=diamondThin;endFill=1;endSize=24;html=1;exitX=1;exitY=0.5;exitDx=0;exitDy=0;entryX=0;entryY=0.5;entryDx=0;entryDy=0;" edge="1" parent="1" source="YpJQnRrANQLxDz62wEku-10" target="YpJQnRrANQLxDz62wEku-2">
          <mxGeometry width="160" relative="1" as="geometry">
            <mxPoint x="90" y="263" as="sourcePoint" />
            <mxPoint x="170" y="490" as="targetPoint" />
            <Array as="points">
              <mxPoint x="300" y="253" />
              <mxPoint x="300" y="393" />
            </Array>
          </mxGeometry>
        </mxCell>
        <mxCell id="YpJQnRrANQLxDz62wEku-58" value="" style="endArrow=diamondThin;endFill=1;endSize=24;html=1;exitX=0.5;exitY=0;exitDx=0;exitDy=0;entryX=0;entryY=0.5;entryDx=0;entryDy=0;" edge="1" parent="1" source="O3PNTl9uKQdWFFmynqRc-5" target="YpJQnRrANQLxDz62wEku-4">
          <mxGeometry width="160" relative="1" as="geometry">
            <mxPoint x="250" y="480" as="sourcePoint" />
            <mxPoint x="370" y="620" as="targetPoint" />
            <Array as="points">
              <mxPoint x="440" y="600" />
              <mxPoint x="320" y="600" />
              <mxPoint x="320" y="524" />
            </Array>
          </mxGeometry>
        </mxCell>
        <mxCell id="YpJQnRrANQLxDz62wEku-59" value="1..*" style="text;html=1;align=center;verticalAlign=middle;resizable=0;points=[];autosize=1;strokeColor=none;" vertex="1" parent="1">
          <mxGeometry x="320" y="540" width="30" height="20" as="geometry" />
        </mxCell>
        <mxCell id="YpJQnRrANQLxDz62wEku-60" value="1..*" style="text;html=1;align=center;verticalAlign=middle;resizable=0;points=[];autosize=1;strokeColor=none;" vertex="1" parent="1">
          <mxGeometry x="440" y="600" width="30" height="20" as="geometry" />
        </mxCell>
        <mxCell id="YpJQnRrANQLxDz62wEku-61" value="" style="endArrow=diamondThin;endFill=1;endSize=24;html=1;entryX=0.5;entryY=0;entryDx=0;entryDy=0;exitX=0;exitY=0.5;exitDx=0;exitDy=0;" edge="1" parent="1" source="YpJQnRrANQLxDz62wEku-24" target="YpJQnRrANQLxDz62wEku-13">
          <mxGeometry width="160" relative="1" as="geometry">
            <mxPoint x="680" y="530" as="sourcePoint" />
            <mxPoint x="860" y="514" as="targetPoint" />
            <Array as="points">
              <mxPoint x="590" y="464" />
              <mxPoint x="590" y="550" />
              <mxPoint x="630" y="550" />
              <mxPoint x="680" y="550" />
            </Array>
          </mxGeometry>
        </mxCell>
        <mxCell id="YpJQnRrANQLxDz62wEku-62" value="1..1" style="text;html=1;align=center;verticalAlign=middle;resizable=0;points=[];autosize=1;strokeColor=none;" vertex="1" parent="1">
          <mxGeometry x="590" y="500" width="40" height="20" as="geometry" />
        </mxCell>
        <mxCell id="YpJQnRrANQLxDz62wEku-63" value="0..*" style="text;html=1;align=center;verticalAlign=middle;resizable=0;points=[];autosize=1;strokeColor=none;" vertex="1" parent="1">
          <mxGeometry x="690" y="570" width="30" height="20" as="geometry" />
        </mxCell>
        <mxCell id="YpJQnRrANQLxDz62wEku-64" value="" style="endArrow=diamondThin;endFill=1;endSize=24;html=1;exitX=0;exitY=0.5;exitDx=0;exitDy=0;entryX=0.5;entryY=0;entryDx=0;entryDy=0;" edge="1" parent="1" source="YpJQnRrANQLxDz62wEku-14" target="YpJQnRrANQLxDz62wEku-17">
          <mxGeometry width="160" relative="1" as="geometry">
            <mxPoint x="585" y="690" as="sourcePoint" />
            <mxPoint x="690" y="790" as="targetPoint" />
            <Array as="points">
              <mxPoint x="555" y="663" />
              <mxPoint x="555" y="780" />
              <mxPoint x="680" y="780" />
            </Array>
          </mxGeometry>
        </mxCell>
        <mxCell id="YpJQnRrANQLxDz62wEku-65" value="0..*" style="text;html=1;align=center;verticalAlign=middle;resizable=0;points=[];autosize=1;strokeColor=none;" vertex="1" parent="1">
          <mxGeometry x="690" y="810" width="30" height="20" as="geometry" />
        </mxCell>
        <mxCell id="YpJQnRrANQLxDz62wEku-66" value="1..1" style="text;html=1;align=center;verticalAlign=middle;resizable=0;points=[];autosize=1;strokeColor=none;" vertex="1" parent="1">
          <mxGeometry x="550" y="640" width="40" height="20" as="geometry" />
        </mxCell>
        <mxCell id="YpJQnRrANQLxDz62wEku-67" value="" style="endArrow=diamondThin;endFill=1;endSize=24;html=1;entryX=1;entryY=0.5;entryDx=0;entryDy=0;exitX=0.5;exitY=0;exitDx=0;exitDy=0;" edge="1" parent="1" source="YpJQnRrANQLxDz62wEku-21" target="YpJQnRrANQLxDz62wEku-4">
          <mxGeometry width="160" relative="1" as="geometry">
            <mxPoint x="610" y="172" as="sourcePoint" />
            <mxPoint x="690" y="308" as="targetPoint" />
            <Array as="points">
              <mxPoint x="680" y="258" />
              <mxPoint x="580" y="258" />
              <mxPoint x="580" y="420" />
              <mxPoint x="560" y="420" />
              <mxPoint x="560" y="524" />
            </Array>
          </mxGeometry>
        </mxCell>
        <mxCell id="YpJQnRrANQLxDz62wEku-68" value="0..*&lt;span style=&quot;color: rgba(0 , 0 , 0 , 0) ; font-family: monospace ; font-size: 0px&quot;&gt;%3CmxGraphModel%3E%3Croot%3E%3CmxCell%20id%3D%220%22%2F%3E%3CmxCell%20id%3D%221%22%20parent%3D%220%22%2F%3E%3CmxCell%20id%3D%222%22%20value%3D%221..1%22%20style%3D%22text%3Bhtml%3D1%3Balign%3Dcenter%3BverticalAlign%3Dmiddle%3Bresizable%3D0%3Bpoints%3D%5B%5D%3Bautosize%3D1%3BstrokeColor%3Dnone%3B%22%20vertex%3D%221%22%20parent%3D%221%22%3E%3CmxGeometry%20x%3D%22590%22%20y%3D%22500%22%20width%3D%2240%22%20height%3D%2220%22%20as%3D%22geometry%22%2F%3E%3C%2FmxCell%3E%3C%2Froot%3E%3C%2FmxGraphModel%3E&lt;/span&gt;" style="text;html=1;align=center;verticalAlign=middle;resizable=0;points=[];autosize=1;strokeColor=none;" vertex="1" parent="1">
          <mxGeometry x="525" y="490" width="30" height="20" as="geometry" />
        </mxCell>
        <mxCell id="YpJQnRrANQLxDz62wEku-69" value="1..1" style="text;html=1;align=center;verticalAlign=middle;resizable=0;points=[];autosize=1;strokeColor=none;" vertex="1" parent="1">
          <mxGeometry x="685" y="300" width="40" height="20" as="geometry" />
        </mxCell>
      </root>
    </mxGraphModel>
  </diagram>
</mxfile>
